<svg width="86" height="86" viewBox="0 0 86 86" fill="none" xmlns="http://www.w3.org/2000/svg">
<circle cx="43" cy="43" r="43" fill="#005555"/>
<path d="M35.896 48.336C38.7547 46.2027 41.016 44.272 42.68 42.544C44.344 40.7947 45.176 39.1627 45.176 37.648C45.176 37.136 45.0587 36.7413 44.824 36.464C44.6107 36.1867 44.3227 36.048 43.96 36.048C43.5333 36.048 43.192 36.272 42.936 36.72C42.7013 37.1467 42.616 37.808 42.68 38.704H35.8C35.864 36.72 36.2907 35.088 37.08 33.808C37.8907 32.528 38.936 31.5893 40.216 30.992C41.496 30.3947 42.904 30.096 44.44 30.096C47.1707 30.096 49.1653 30.7573 50.424 32.08C51.704 33.3813 52.344 35.056 52.344 37.104C52.344 39.2587 51.6507 41.2853 50.264 43.184C48.8987 45.0613 47.1813 46.6507 45.112 47.952H52.44V53.68H35.896V48.336Z" fill="white"/>
</svg>
