<svg width="86" height="86" viewBox="0 0 86 86" fill="none" xmlns="http://www.w3.org/2000/svg">
<circle cx="43" cy="43" r="43" fill="#005555"/>
<path d="M50.688 36.848H41.408V39.536C41.8133 39.1733 42.336 38.8853 42.976 38.672C43.6373 38.4587 44.3733 38.352 45.184 38.352C46.6347 38.352 47.8613 38.6933 48.864 39.376C49.8667 40.0587 50.6133 40.976 51.104 42.128C51.5947 43.2587 51.84 44.5173 51.84 45.904C51.84 48.464 51.1147 50.4587 49.664 51.888C48.2347 53.296 46.2613 54 43.744 54C41.9093 54 40.32 53.68 38.976 53.04C37.6533 52.4 36.64 51.5147 35.936 50.384C35.2533 49.2533 34.9333 47.9627 34.976 46.512H41.888C41.888 46.8533 42.0053 47.1733 42.24 47.472C42.4747 47.7707 42.8587 47.92 43.392 47.92C43.9253 47.92 44.32 47.728 44.576 47.344C44.832 46.96 44.96 46.4373 44.96 45.776C44.96 45.1573 44.8107 44.688 44.512 44.368C44.2347 44.048 43.8293 43.888 43.296 43.888C42.848 43.888 42.5067 43.9947 42.272 44.208C42.0373 44.4213 41.92 44.6667 41.92 44.944H35.008V30.608H50.688V36.848Z" fill="white"/>
</svg>
