<svg width="86" height="86" viewBox="0 0 86 86" fill="none" xmlns="http://www.w3.org/2000/svg">
<circle cx="43" cy="43" r="43" fill="#005555"/>
<path d="M33.44 37.936C33.504 35.3973 34.24 33.456 35.648 32.112C37.0773 30.768 39.0933 30.096 41.696 30.096C43.3813 30.096 44.8213 30.384 46.016 30.96C47.2107 31.536 48.1067 32.3147 48.704 33.296C49.3227 34.2773 49.632 35.3867 49.632 36.624C49.632 38.1173 49.28 39.2907 48.576 40.144C47.872 40.976 47.0827 41.5413 46.208 41.84V41.968C48.768 42.928 50.048 44.7093 50.048 47.312C50.048 48.6773 49.728 49.8827 49.088 50.928C48.448 51.9733 47.5307 52.784 46.336 53.36C45.1627 53.936 43.7653 54.224 42.144 54.224C39.3707 54.224 37.1947 53.5627 35.616 52.24C34.0373 50.9173 33.2267 48.848 33.184 46.032H40.096C40.0533 46.8 40.16 47.3867 40.416 47.792C40.6933 48.176 41.1627 48.368 41.824 48.368C42.208 48.368 42.528 48.2293 42.784 47.952C43.04 47.6533 43.168 47.2693 43.168 46.8C43.168 46.2027 42.9653 45.7547 42.56 45.456C42.176 45.136 41.5147 44.976 40.576 44.976H39.392V39.248H40.544C41.9947 39.3333 42.72 38.7573 42.72 37.52C42.72 36.9867 42.6027 36.592 42.368 36.336C42.1547 36.08 41.8773 35.952 41.536 35.952C40.7467 35.952 40.352 36.6133 40.352 37.936H33.44Z" fill="white"/>
</svg>
